# Blender v2.80 (sub 75) OBJ File: ''
# www.blender.org
mtllib cylinder.mtl
o Cylinder
v 0.000000 -1.000000 -1.000000
v 0.000000 1.000000 -1.000000
v 0.195090 -1.000000 -0.980785
v 0.195090 1.000000 -0.980785
v 0.382683 -1.000000 -0.923880
v 0.382683 1.000000 -0.923880
v 0.555570 -1.000000 -0.831470
v 0.555570 1.000000 -0.831470
v 0.707107 -1.000000 -0.707107
v 0.707107 1.000000 -0.707107
v 0.831470 -1.000000 -0.555570
v 0.831470 1.000000 -0.555570
v 0.923880 -1.000000 -0.382683
v 0.923880 1.000000 -0.382683
v 0.980785 -1.000000 -0.195090
v 0.980785 1.000000 -0.195090
v 1.000000 -1.000000 -0.000000
v 1.000000 1.000000 -0.000000
v 0.980785 -1.000000 0.195090
v 0.980785 1.000000 0.195090
v 0.923880 -1.000000 0.382683
v 0.923880 1.000000 0.382683
v 0.831470 -1.000000 0.555570
v 0.831470 1.000000 0.555570
v 0.707107 -1.000000 0.707107
v 0.707107 1.000000 0.707107
v 0.555570 -1.000000 0.831470
v 0.555570 1.000000 0.831470
v 0.382683 -1.000000 0.923880
v 0.382683 1.000000 0.923880
v 0.195090 -1.000000 0.980785
v 0.195090 1.000000 0.980785
v -0.000000 -1.000000 1.000000
v -0.000000 1.000000 1.000000
v -0.195091 -1.000000 0.980785
v -0.195091 1.000000 0.980785
v -0.382684 -1.000000 0.923879
v -0.382684 1.000000 0.923879
v -0.555571 -1.000000 0.831469
v -0.555571 1.000000 0.831469
v -0.707107 -1.000000 0.707106
v -0.707107 1.000000 0.707106
v -0.831470 -1.000000 0.555570
v -0.831470 1.000000 0.555570
v -0.923880 -1.000000 0.382683
v -0.923880 1.000000 0.382683
v -0.980785 -1.000000 0.195089
v -0.980785 1.000000 0.195089
v -1.000000 -1.000000 -0.000001
v -1.000000 1.000000 -0.000001
v -0.980785 -1.000000 -0.195091
v -0.980785 1.000000 -0.195091
v -0.923879 -1.000000 -0.382684
v -0.923879 1.000000 -0.382684
v -0.831469 -1.000000 -0.555571
v -0.831469 1.000000 -0.555571
v -0.707106 -1.000000 -0.707108
v -0.707106 1.000000 -0.707108
v -0.555569 -1.000000 -0.831470
v -0.555569 1.000000 -0.831470
v -0.382682 -1.000000 -0.923880
v -0.382682 1.000000 -0.923880
v -0.195089 -1.000000 -0.980786
v -0.195089 1.000000 -0.980786
vt -0.000010 0.499031
vt 0.001193 -0.000968
vt 0.032443 -0.000892
vt 0.031239 0.499106
vt 0.063693 -0.000817
vt 0.062489 0.499181
vt 0.094943 -0.000742
vt 0.093739 0.499257
vt 0.126192 -0.000667
vt 0.124989 0.499332
vt 0.157442 -0.000592
vt 0.156239 0.499407
vt 0.188692 -0.000516
vt 0.187489 0.499482
vt 0.219942 -0.000441
vt 0.218739 0.499557
vt 0.251192 -0.000366
vt 0.249989 0.499633
vt 0.282442 -0.000291
vt 0.281239 0.499708
vt 0.313692 -0.000215
vt 0.312488 0.499783
vt 0.344942 -0.000140
vt 0.343738 0.499858
vt 0.376192 -0.000065
vt 0.374988 0.499933
vt 0.407442 0.000010
vt 0.406238 0.500009
vt 0.438692 0.000085
vt 0.437488 0.500084
vt 0.469941 0.000161
vt 0.468738 0.500159
vt 0.501191 0.000236
vt 0.499988 0.500234
vt 0.532441 0.000311
vt 0.531238 0.500310
vt 0.563691 0.000386
vt 0.562488 0.500385
vt 0.594941 0.000461
vt 0.593738 0.500460
vt 0.626191 0.000537
vt 0.624988 0.500535
vt 0.657441 0.000612
vt 0.656237 0.500610
vt 0.688691 0.000687
vt 0.687487 0.500686
vt 0.719941 0.000762
vt 0.718737 0.500761
vt 0.751191 0.000838
vt 0.749987 0.500836
vt 0.782441 0.000913
vt 0.781237 0.500911
vt 0.813690 0.000988
vt 0.812487 0.500986
vt 0.844940 0.001063
vt 0.843737 0.501062
vt 0.876190 0.001138
vt 0.874987 0.501137
vt 0.907440 0.001214
vt 0.906237 0.501212
vt 0.938690 0.001289
vt 0.937487 0.501287
vt 0.703130 0.515335
vt 0.749963 0.510836
vt 0.796773 0.515560
vt 0.841763 0.529326
vt 0.883202 0.551604
vt 0.919499 0.581538
vt 0.949258 0.617979
vt 0.971337 0.659525
vt 0.984886 0.704580
vt 0.989385 0.751413
vt 0.984661 0.798223
vt 0.970895 0.843213
vt 0.948617 0.884652
vt 0.918682 0.920949
vt 0.882242 0.950708
vt 0.840696 0.972787
vt 0.795641 0.986336
vt 0.748808 0.990835
vt 0.701998 0.986110
vt 0.657008 0.972345
vt 0.615569 0.950067
vt 0.579272 0.920132
vt 0.549513 0.883691
vt 0.527434 0.842145
vt 0.513885 0.797090
vt 0.509386 0.750258
vt 0.514110 0.703447
vt 0.527876 0.658458
vt 0.550154 0.617019
vt 0.580089 0.580722
vt 0.616529 0.550962
vt 0.658075 0.528884
vt 0.969940 0.001364
vt 0.968737 0.501363
vt 1.001190 0.001439
vt 0.999987 0.501438
vt 0.249965 0.509633
vt 0.203132 0.514131
vt 0.158077 0.527680
vt 0.116531 0.549759
vt 0.080090 0.579518
vt 0.050156 0.615815
vt 0.027878 0.657255
vt 0.014112 0.702244
vt 0.009388 0.749054
vt 0.013887 0.795887
vt 0.027436 0.840942
vt 0.049514 0.882488
vt 0.079273 0.918929
vt 0.115570 0.948863
vt 0.157010 0.971141
vt 0.201999 0.984907
vt 0.248809 0.989631
vt 0.295642 0.985132
vt 0.340697 0.971583
vt 0.382243 0.949505
vt 0.418684 0.919745
vt 0.448618 0.883449
vt 0.470897 0.842009
vt 0.484662 0.797020
vt 0.489386 0.750209
vt 0.484887 0.703377
vt 0.471338 0.658322
vt 0.449260 0.616776
vt 0.419500 0.580335
vt 0.383204 0.550401
vt 0.341764 0.528122
vt 0.296775 0.514357
vn 0.0980 0.0000 -0.9952
vn 0.2903 0.0000 -0.9569
vn 0.4714 0.0000 -0.8819
vn 0.6344 0.0000 -0.7730
vn 0.7730 0.0000 -0.6344
vn 0.8819 0.0000 -0.4714
vn 0.9569 0.0000 -0.2903
vn 0.9952 0.0000 -0.0980
vn 0.9952 0.0000 0.0980
vn 0.9569 0.0000 0.2903
vn 0.8819 0.0000 0.4714
vn 0.7730 0.0000 0.6344
vn 0.6344 0.0000 0.7730
vn 0.4714 0.0000 0.8819
vn 0.2903 0.0000 0.9569
vn 0.0980 0.0000 0.9952
vn -0.0980 0.0000 0.9952
vn -0.2903 0.0000 0.9569
vn -0.4714 0.0000 0.8819
vn -0.6344 0.0000 0.7730
vn -0.7730 0.0000 0.6344
vn -0.8819 0.0000 0.4714
vn -0.9569 0.0000 0.2903
vn -0.9952 0.0000 0.0980
vn -0.9952 0.0000 -0.0980
vn -0.9569 0.0000 -0.2903
vn -0.8819 0.0000 -0.4714
vn -0.7730 0.0000 -0.6344
vn -0.6344 0.0000 -0.7730
vn -0.4714 0.0000 -0.8819
vn 0.0000 1.0000 0.0000
vn -0.2903 0.0000 -0.9569
vn -0.0980 0.0000 -0.9952
vn 0.0000 -1.0000 -0.0000
usemtl Material.001
s off
f 1/1/1 2/2/1 4/3/1 3/4/1
f 3/4/2 4/3/2 6/5/2 5/6/2
f 5/6/3 6/5/3 8/7/3 7/8/3
f 7/8/4 8/7/4 10/9/4 9/10/4
f 9/10/5 10/9/5 12/11/5 11/12/5
f 11/12/6 12/11/6 14/13/6 13/14/6
f 13/14/7 14/13/7 16/15/7 15/16/7
f 15/16/8 16/15/8 18/17/8 17/18/8
f 17/18/9 18/17/9 20/19/9 19/20/9
f 19/20/10 20/19/10 22/21/10 21/22/10
f 21/22/11 22/21/11 24/23/11 23/24/11
f 23/24/12 24/23/12 26/25/12 25/26/12
f 25/26/13 26/25/13 28/27/13 27/28/13
f 27/28/14 28/27/14 30/29/14 29/30/14
f 29/30/15 30/29/15 32/31/15 31/32/15
f 31/32/16 32/31/16 34/33/16 33/34/16
f 33/34/17 34/33/17 36/35/17 35/36/17
f 35/36/18 36/35/18 38/37/18 37/38/18
f 37/38/19 38/37/19 40/39/19 39/40/19
f 39/40/20 40/39/20 42/41/20 41/42/20
f 41/42/21 42/41/21 44/43/21 43/44/21
f 43/44/22 44/43/22 46/45/22 45/46/22
f 45/46/23 46/45/23 48/47/23 47/48/23
f 47/48/24 48/47/24 50/49/24 49/50/24
f 49/50/25 50/49/25 52/51/25 51/52/25
f 51/52/26 52/51/26 54/53/26 53/54/26
f 53/54/27 54/53/27 56/55/27 55/56/27
f 55/56/28 56/55/28 58/57/28 57/58/28
f 57/58/29 58/57/29 60/59/29 59/60/29
f 59/60/30 60/59/30 62/61/30 61/62/30
f 4/63/31 2/64/31 64/65/31 62/66/31 60/67/31 58/68/31 56/69/31 54/70/31 52/71/31 50/72/31 48/73/31 46/74/31 44/75/31 42/76/31 40/77/31 38/78/31 36/79/31 34/80/31 32/81/31 30/82/31 28/83/31 26/84/31 24/85/31 22/86/31 20/87/31 18/88/31 16/89/31 14/90/31 12/91/31 10/92/31 8/93/31 6/94/31
f 61/62/32 62/61/32 64/95/32 63/96/32
f 63/96/33 64/95/33 2/97/33 1/98/33
f 1/99/34 3/100/34 5/101/34 7/102/34 9/103/34 11/104/34 13/105/34 15/106/34 17/107/34 19/108/34 21/109/34 23/110/34 25/111/34 27/112/34 29/113/34 31/114/34 33/115/34 35/116/34 37/117/34 39/118/34 41/119/34 43/120/34 45/121/34 47/122/34 49/123/34 51/124/34 53/125/34 55/126/34 57/127/34 59/128/34 61/129/34 63/130/34
