# Blender v2.79 (sub 0) OBJ File: ''
# www.blender.org
mtllib leftBumber.mtl
o Cube_Cube.001
v -6.553765 -0.139230 22.827847
v -6.553765 3.097592 22.827847
v -5.905405 3.097593 21.108528
v -5.905405 -0.139229 21.108528
v -1.435477 3.097592 22.794153
v -1.435477 -0.139230 22.794153
v -2.083837 3.097592 24.513470
v -2.083837 -0.139230 24.513470
vt 1.000000 0.000000
vt 0.000000 1.000000
vt 0.000000 0.000000
vt 1.000000 0.000000
vt 0.000000 1.000000
vt 0.000000 0.000000
vt 1.000000 0.000000
vt 0.000000 1.000000
vt 0.000000 0.000000
vt 1.000000 0.000000
vt 0.000000 1.000000
vt 0.000000 0.000000
vt 1.000000 0.000000
vt 0.000000 0.000000
vt 1.000000 1.000000
vt 0.000000 1.000000
vt 1.000000 1.000000
vt 1.000000 1.000000
vt 1.000000 1.000000
vt 1.000000 1.000000
vn -0.9357 0.0000 -0.3528
vn 0.3528 0.0000 -0.9357
vn 0.9357 0.0000 0.3528
vn -0.3528 0.0000 0.9357
vn 0.0000 -1.0000 -0.0000
vn 0.0000 1.0000 0.0000
usemtl Material.002
s 1
f 2/1/1 4/2/1 1/3/1
f 3/4/2 6/5/2 4/6/2
f 5/7/3 8/8/3 6/9/3
f 7/10/4 1/11/4 8/12/4
f 6/13/5 1/11/5 4/6/5
f 5/14/6 2/15/6 7/16/6
f 2/1/1 3/17/1 4/2/1
f 3/4/2 5/18/2 6/5/2
f 5/7/3 7/19/3 8/8/3
f 7/10/4 2/15/4 1/11/4
f 6/13/5 8/20/5 1/11/5
f 5/14/6 3/4/6 2/15/6
