# Blender v2.79 (sub 0) OBJ File: ''
# www.blender.org
mtllib plunger.mtl
o Cube_Cube.002
v 19.670300 -0.688306 49.624069
v 19.670300 2.621667 49.624069
v 19.670300 2.621669 31.696320
v 19.670300 -0.688304 31.696320
v 22.032082 2.621669 31.696320
v 22.032082 -0.688304 31.696320
v 22.032082 2.621667 49.624069
v 22.032082 -0.688306 49.624069
vt 0.000000 0.000000
vt 1.000000 0.000000
vt 1.000000 1.000000
vt 0.000000 1.000000
vt 0.000000 0.000000
vt 1.000000 0.000000
vt 1.000000 1.000000
vt 0.000000 1.000000
vt 0.000000 0.000000
vt 1.000000 0.000000
vt 1.000000 1.000000
vt 0.000000 1.000000
vt 0.000000 0.000000
vt 1.000000 0.000000
vt 1.000000 1.000000
vt 0.000000 1.000000
vt 1.000000 0.000000
vt 1.000000 1.000000
vt 0.000000 0.000000
vt 0.000000 1.000000
vn -1.0000 0.0000 0.0000
vn 0.0000 0.0000 -1.0000
vn 1.0000 0.0000 0.0000
vn 0.0000 0.0000 1.0000
vn 0.0000 -1.0000 -0.0000
vn 0.0000 1.0000 0.0000
usemtl Material.005
s 1
f 1/1/1 2/2/1 3/3/1 4/4/1
f 4/5/2 3/6/2 5/7/2 6/8/2
f 6/9/3 5/10/3 7/11/3 8/12/3
f 8/13/4 7/14/4 2/15/4 1/16/4
f 4/5/5 6/17/5 8/18/5 1/16/5
f 5/19/6 3/6/6 2/15/6 7/20/6
