# Blender v2.80 (sub 75) OBJ File: ''
# www.blender.org
mtllib Ball.mtl
o Ball_Mesh.002
v 0.023627 -1.000407 0.023627
v 0.047059 -0.968341 0.273780
v -0.207036 -0.968341 0.123211
v 0.107080 -0.447399 0.914511
v 0.093923 -0.657782 0.774087
v 0.339075 -0.502503 0.829106
v -0.142370 -0.968341 -0.164976
v 0.151711 -0.968341 -0.192519
v 0.268778 -0.968341 0.078646
v 0.259920 -0.251251 0.962690
v -0.797871 -0.447399 0.378291
v -0.644947 -0.502503 0.572534
v -0.796464 -0.251251 0.538535
v -0.567528 -0.447399 -0.648072
v -0.705015 -0.502503 -0.442606
v -0.719504 -0.251251 -0.597210
v 0.479772 -0.447399 -0.746155
v 0.241883 -0.502503 -0.813430
v 0.384438 -0.251251 -0.874981
v 0.896691 -0.447399 0.219568
v 0.887157 -0.502503 -0.027461
v 0.989754 -0.251251 0.089100
v -0.034161 -0.251251 0.990242
v -0.913531 -0.251251 0.267371
v -0.497785 -0.251251 -0.792344
v 0.638542 -0.251251 -0.724412
v 0.925069 -0.251251 0.377297
v -0.432518 0.447399 0.793409
v -0.194630 0.502503 0.860684
v -0.360617 0.657782 0.672072
v -0.849437 0.447399 -0.172314
v -0.839903 0.502503 0.074714
v -0.711819 0.657782 -0.141431
v -0.059827 0.447399 -0.867258
v -0.291822 0.502503 -0.781853
v -0.046670 0.657782 -0.726833
v 0.845125 0.447399 -0.331038
v 0.692201 0.502503 -0.525281
v 0.715633 0.657782 -0.275127
v 0.614782 0.447399 0.695326
v 0.752269 0.502503 0.489860
v 0.521606 0.657782 0.589444
v 0.189614 0.968341 0.212230
v 0.254289 0.968341 -0.075958
v 0.023627 1.000407 0.023627
v 0.371103 0.850993 0.418437
v 0.460159 0.894789 0.121597
v 0.642840 0.723903 0.329165
v 0.506488 0.851002 -0.184833
v 0.714019 0.723903 0.012000
v 0.853965 0.525944 0.209977
v 0.881629 0.502503 -0.086524
v 0.000195 0.968341 -0.226527
v 0.251690 0.894789 -0.361264
v 0.505550 0.723903 -0.470862
v -0.025424 0.850993 -0.500018
v 0.225912 0.723903 -0.636567
v 0.457437 0.525954 -0.708487
v 0.184002 0.502503 -0.826418
v -0.221525 0.968341 -0.031392
v -0.271946 0.894789 -0.312223
v -0.297734 0.723903 -0.587516
v -0.489546 0.850993 -0.091545
v -0.541740 0.723903 -0.372769
v -0.538597 0.525944 -0.615190
v -0.735251 0.502503 -0.391585
v -0.104458 0.968341 0.239772
v -0.387118 0.894789 0.200950
v -0.656912 0.723903 0.140403
v -0.244488 0.850993 0.476093
v -0.528077 0.723903 0.438829
v -0.757660 0.525954 0.360921
v -0.605769 0.502503 0.617052
v 0.065349 0.894789 0.469064
v -0.075611 0.723903 0.706943
v 0.248030 0.723903 0.676633
v 0.102989 0.525944 0.870913
v 0.393522 0.502503 0.805599
v 0.766749 0.251251 0.644464
v 0.884276 -0.000000 0.533618
v 0.912635 0.276504 0.389712
v 0.999748 -0.000000 0.242700
v 0.983813 0.276513 0.072546
v 1.019670 0.000000 -0.069670
v 0.960785 0.251251 -0.220117
v 0.843717 0.251251 -0.491282
v 0.774603 0.000000 -0.637309
v 0.646509 0.276514 -0.708741
v 0.533609 0.000000 -0.837022
v 0.366862 0.276514 -0.874446
v 0.242690 0.000000 -0.952494
v 0.081414 0.251251 -0.942988
v -0.212666 0.251251 -0.915436
v -0.372901 0.000000 -0.894838
v -0.480415 0.276504 -0.795084
v -0.637309 0.000000 -0.727350
v -0.724422 0.276504 -0.580337
v -0.837022 0.000000 -0.486364
v -0.877815 0.251251 -0.330043
v -0.942500 0.251251 -0.041846
v -0.972417 -0.000000 0.116924
v -0.910772 0.276504 0.250001
v -0.894838 -0.000000 0.420145
v -0.781937 0.276504 0.548426
v -0.727350 -0.000000 0.684562
v -0.591289 0.251251 0.771666
v -0.337185 0.251251 0.922235
v -0.195437 -0.000000 0.999748
v -0.049823 0.276504 0.982246
v 0.116924 -0.000000 1.019670
v 0.273818 0.276504 0.951935
v 0.420154 -0.000000 0.942091
v 0.545039 0.251251 0.839598
v 0.942091 0.000000 -0.372891
v 0.958026 -0.276513 -0.202747
v 0.829191 -0.276504 -0.501173
v 0.804914 -0.525954 -0.313668
v 0.653022 -0.502503 -0.569799
v -0.069670 0.000000 -0.972417
v 0.097077 -0.276504 -0.934993
v -0.226564 -0.276504 -0.904682
v -0.055735 -0.525944 -0.823659
v -0.346268 -0.502503 -0.758345
v -0.952494 0.000000 -0.195446
v -0.865381 -0.276504 -0.342459
v -0.936560 -0.276513 -0.025293
v -0.806711 -0.525944 -0.162724
v -0.834376 -0.502503 0.133778
v -0.486355 -0.000000 0.884276
v -0.599256 -0.276514 0.755994
v -0.319608 -0.276514 0.921700
v -0.410184 -0.525954 0.755741
v -0.136748 -0.502503 0.873672
v 0.684562 -0.000000 0.774603
v 0.527668 -0.276504 0.842338
v 0.771675 -0.276504 0.627591
v 0.585850 -0.525944 0.662444
v 0.782504 -0.502503 0.438838
v 0.759072 -0.657782 0.188685
v 0.536799 -0.850993 0.138798
v 0.704166 -0.723903 -0.093150
v 0.434371 -0.894789 -0.153696
v 0.575331 -0.723903 -0.391575
v 0.291741 -0.851002 -0.428840
v 0.407870 -0.657782 -0.624818
v 0.122864 -0.723903 -0.659690
v -0.018095 -0.894789 -0.421811
v -0.200777 -0.723903 -0.629379
v -0.323850 -0.850993 -0.371183
v -0.474353 -0.657782 -0.542191
v -0.595587 -0.723903 -0.281912
v -0.412905 -0.894789 -0.074344
v -0.666765 -0.723903 0.035254
v -0.459235 -0.851002 0.232086
v -0.668380 -0.657782 0.322381
v 0.588994 -0.723903 0.420023
v 0.344987 -0.723903 0.634770
v 0.319200 -0.894789 0.359476
v 0.072678 -0.850993 0.547272
v -0.458296 -0.723903 0.518115
v -0.204436 -0.894789 0.408518
v -0.178658 -0.723903 0.683821
vt 0.697543 0.447105
vt 0.664679 0.455782
vt 0.678956 0.418681
vt 0.860226 0.750813
vt 0.854279 0.774323
vt 0.827615 0.748447
vt 0.717451 0.420297
vt 0.726964 0.458397
vt 0.694350 0.480328
vt 0.846906 0.722331
vt 0.902791 0.800442
vt 0.929380 0.791289
vt 0.928728 0.821684
vt 0.607957 0.614621
vt 0.590544 0.597722
vt 0.626315 0.587599
vt 0.646599 0.750813
vt 0.633280 0.722331
vt 0.671867 0.732067
vt 0.681189 0.930610
vt 0.647185 0.931334
vt 0.670320 0.899598
vt 0.885493 0.732067
vt 0.891223 0.826497
vt 0.639316 0.617342
vt 0.676423 0.764200
vt 0.707216 0.908728
vt 0.959005 0.649294
vt 0.930116 0.636814
vt 0.955702 0.616807
vt 0.851614 0.930610
vt 0.885618 0.931334
vt 0.863020 0.960078
vt 0.745379 0.649294
vt 0.742076 0.616807
vt 0.768740 0.642683
vt 0.908223 0.160853
vt 0.928361 0.186366
vt 0.891413 0.179257
vt 0.821584 0.614621
vt 0.804171 0.597722
vt 0.839941 0.587599
vt 0.807577 0.240856
vt 0.846071 0.239240
vt 0.827485 0.267664
vt 0.788538 0.210500
vt 0.827192 0.206435
vt 0.775928 0.184106
vt 0.809777 0.175207
vt 0.869120 0.207117
vt 0.852141 0.173428
vt 0.824679 0.568280
vt 0.798598 0.154114
vt 0.835994 0.147718
vt 0.703254 0.804595
vt 0.664106 0.799078
vt 0.679898 0.776477
vt 0.875588 0.150881
vt 0.630012 0.800442
vt 0.640524 0.777318
vt 0.860348 0.276342
vt 0.885268 0.245487
vt 0.910218 0.212480
vt 0.899006 0.284782
vt 0.925930 0.253311
vt 0.934244 0.290561
vt 0.946463 0.222000
vt 0.956915 0.260569
vt 0.959069 0.292985
vt 0.830678 0.300888
vt 0.868327 0.313331
vt 0.908989 0.321155
vt 0.836896 0.336164
vt 0.876336 0.348169
vt 0.836884 0.978520
vt 0.877828 0.988597
vt 0.941521 0.322217
vt 0.914239 0.351048
vt 0.800163 0.959352
vt 0.825919 0.946107
vt 0.798063 0.278957
vt 0.799781 0.316209
vt 0.902584 0.962262
vt 0.768623 0.290257
vt 0.807789 0.351048
vt 0.943858 0.956964
vt 0.918988 0.988597
vt 0.771896 0.326912
vt 0.978320 0.607046
vt 0.945614 0.583121
vt 0.925133 0.928427
vt 0.960627 0.921706
vt 0.975533 0.945636
vt 0.982365 0.642683
vt 0.774357 0.250144
vt 0.920819 0.600587
vt 0.906511 0.567854
vt 0.878353 0.589872
vt 0.756942 0.218916
vt 0.864840 0.562741
vt 0.892054 0.625002
vt 0.852942 0.617342
vt 0.795064 0.633722
vt 0.733334 0.881106
vt 0.721666 0.840648
vt 0.752269 0.853889
vt 0.696875 0.870824
vt 0.737899 0.817339
vt 0.681061 0.830599
vt 0.656098 0.861993
vt 0.641579 0.826497
vt 0.604075 0.821683
vt 0.603422 0.791289
vt 0.577589 0.851916
vt 0.573002 0.816730
vt 0.707930 0.742139
vt 0.710678 0.772318
vt 0.958596 0.193912
vt 0.743469 0.746131
vt 0.738455 0.710768
vt 0.768740 0.712646
vt 0.759632 0.678683
vt 0.701141 0.705054
vt 0.727340 0.675055
vt 0.716489 0.636814
vt 0.678428 0.625002
vt 0.707193 0.600587
vt 0.664727 0.589872
vt 0.731988 0.583121
vt 0.692886 0.567854
vt 0.795687 0.922009
vt 0.651214 0.562741
vt 0.770896 0.891833
vt 0.799468 0.881106
vt 0.825586 0.908728
vt 0.862483 0.899598
vt 0.876705 0.861993
vt 0.901993 0.895702
vt 0.917808 0.855478
vt 0.943268 0.890404
vt 0.955214 0.851916
vt 0.974997 0.885156
vt 0.973258 0.678683
vt 0.940966 0.675056
vt 0.914768 0.705054
vt 0.904602 0.664691
vt 0.874077 0.696062
vt 0.862136 0.653976
vt 0.833993 0.684673
vt 0.825206 0.645848
vt 0.614995 0.855478
vt 0.630809 0.895702
vt 0.589535 0.890404
vt 0.557805 0.885156
vt 0.607670 0.928427
vt 0.572176 0.921706
vt 0.640651 0.774323
vt 0.690975 0.664691
vt 0.660451 0.696062
vt 0.648509 0.653976
vt 0.620366 0.684673
vt 0.611579 0.645847
vt 0.835927 0.870824
vt 0.780533 0.853889
vt 0.811137 0.840648
vt 0.851742 0.830600
vt 0.794903 0.817339
vt 0.829549 0.804596
vt 0.868696 0.799078
vt 0.982365 0.712647
vt 0.952081 0.710769
vt 0.959801 0.816730
vt 0.957095 0.746132
vt 0.921557 0.742140
vt 0.596666 0.365807
vt 0.578564 0.401440
vt 0.566431 0.373352
vt 0.924304 0.772319
vt 0.890049 0.764200
vt 0.798440 0.672002
vt 0.810381 0.714088
vt 0.770896 0.659290
vt 0.777209 0.700744
vt 0.761906 0.891832
vt 0.737116 0.922008
vt 0.793610 0.739342
vt 0.732640 0.959351
vt 0.706884 0.946107
vt 0.669783 0.960078
vt 0.654975 0.988597
vt 0.630219 0.962261
vt 0.725247 0.495650
vt 0.688131 0.515605
vt 0.717238 0.530488
vt 0.613815 0.988597
vt 0.588945 0.956964
vt 0.756404 0.469697
vt 0.753132 0.506353
vt 0.579983 0.739341
vt 0.613988 0.748446
vt 0.604867 0.771306
vt 0.557270 0.945636
vt 0.596754 0.714087
vt 0.750670 0.429584
vt 0.563582 0.700742
vt 0.584813 0.672002
vt 0.736489 0.389941
vt 0.768085 0.398356
vt 0.557270 0.659289
vt 0.581437 0.633721
vt 0.715251 0.354647
vt 0.749099 0.363546
vt 0.697835 0.385875
vt 0.561663 0.619039
vt 0.689033 0.327158
vt 0.726429 0.333554
vt 0.672886 0.352868
vt 0.852904 0.776477
vt 0.655907 0.386558
vt 0.633614 0.358697
vt 0.649439 0.330322
vt 0.892279 0.777318
vt 0.695920 0.978519
vt 0.583506 0.501658
vt 0.616038 0.500596
vt 0.610788 0.530488
vt 0.648691 0.527610
vt 0.656700 0.492771
vt 0.590783 0.470002
vt 0.626021 0.464222
vt 0.616804 0.340293
vt 0.614809 0.391921
vt 0.639759 0.424927
vt 0.599097 0.432752
vt 0.568112 0.440010
vt 0.565958 0.472426
vn -0.0000 -1.0000 -0.0000
vn 0.0243 -0.9654 0.2596
vn -0.2394 -0.9654 0.1034
vn 0.0834 -0.4472 0.8905
vn 0.0697 -0.6650 0.7436
vn 0.3241 -0.5038 0.8007
vn -0.1723 -0.9654 -0.1957
vn 0.1329 -0.9654 -0.2243
vn 0.2544 -0.9654 0.0571
vn 0.2419 -0.2431 0.9394
vn -0.8212 -0.4472 0.3545
vn -0.6614 -0.5038 0.5556
vn -0.8186 -0.2431 0.5204
vn -0.5909 -0.4472 -0.6714
vn -0.7328 -0.5038 -0.4573
vn -0.7479 -0.2431 -0.6178
vn 0.4560 -0.4472 -0.7695
vn 0.2085 -0.5038 -0.8383
vn 0.3564 -0.2431 -0.9022
vn 0.8727 -0.4472 0.1959
vn 0.8617 -0.5038 -0.0608
vn 0.9681 -0.2431 0.0602
vn -0.0633 -0.2431 0.9679
vn -0.9401 -0.2431 0.2389
vn -0.5178 -0.2431 -0.8203
vn 0.6201 -0.2431 -0.7459
vn 0.9010 -0.2431 0.3593
vn -0.4560 0.4472 0.7695
vn -0.2085 0.5038 0.8383
vn -0.3807 0.6650 0.6425
vn -0.8727 0.4472 -0.1959
vn -0.8617 0.5038 0.0608
vn -0.7287 0.6650 -0.1636
vn -0.0834 0.4472 -0.8905
vn -0.3241 0.5038 -0.8007
vn -0.0697 0.6650 -0.7436
vn 0.8212 0.4472 -0.3545
vn 0.6614 0.5038 -0.5556
vn 0.6857 0.6650 -0.2960
vn 0.5909 0.4472 0.6714
vn 0.7328 0.5038 0.4573
vn 0.4934 0.6650 0.5607
vn 0.1723 0.9654 0.1957
vn 0.2394 0.9654 -0.1034
vn 0.0000 1.0000 0.0000
vn 0.3473 0.8507 0.3947
vn 0.4441 0.8904 0.0997
vn 0.6182 0.7275 0.2975
vn 0.4827 0.8507 -0.2084
vn 0.6860 0.7275 -0.0048
vn 0.8300 0.5257 0.1863
vn 0.8580 0.5038 -0.1003
vn -0.0243 0.9654 -0.2596
vn 0.2320 0.8904 -0.3916
vn 0.4740 0.7275 -0.4960
vn -0.0490 0.8507 -0.5234
vn 0.2074 0.7276 -0.6539
vn 0.4336 0.5257 -0.7318
vn 0.1697 0.5038 -0.8470
vn -0.2544 0.9654 -0.0571
vn -0.3007 0.8904 -0.3417
vn -0.3253 0.7276 -0.6040
vn -0.5130 0.8507 -0.1151
vn -0.5578 0.7276 -0.3994
vn -0.5620 0.5257 -0.6386
vn -0.7531 0.5038 -0.4232
vn -0.1329 0.9654 0.2243
vn -0.4179 0.8904 0.1804
vn -0.6750 0.7276 0.1227
vn -0.2680 0.8507 0.4523
vn -0.5522 0.7276 0.4071
vn -0.7810 0.5257 0.3372
vn -0.6352 0.5038 0.5854
vn 0.0424 0.8904 0.4531
vn -0.0919 0.7276 0.6799
vn 0.2166 0.7276 0.6510
vn 0.0793 0.5257 0.8469
vn 0.3605 0.5038 0.7850
vn 0.7479 0.2431 0.6178
vn 0.8603 0.0000 0.5098
vn 0.8927 0.2724 0.3591
vn 0.9757 0.0089 0.2190
vn 0.9605 0.2724 0.0568
vn 0.9956 0.0000 -0.0933
vn 0.9401 0.2431 -0.2389
vn 0.8186 0.2431 -0.5204
vn 0.7507 0.0000 -0.6607
vn 0.6174 0.2724 -0.7380
vn 0.5098 0.0089 -0.8603
vn 0.3508 0.2724 -0.8959
vn 0.2190 -0.0000 -0.9757
vn 0.0633 0.2431 -0.9679
vn -0.2419 0.2431 -0.9394
vn -0.3964 0.0000 -0.9181
vn -0.5111 0.2724 -0.8152
vn -0.6606 0.0089 -0.7506
vn -0.7437 0.2724 -0.6105
vn -0.8603 0.0000 -0.5098
vn -0.9010 0.2431 -0.3593
vn -0.9681 0.2431 -0.0602
vn -0.9956 -0.0000 0.0933
vn -0.9332 0.2724 0.2342
vn -0.9181 0.0089 0.3963
vn -0.8105 0.2724 0.5186
vn -0.7507 -0.0000 0.6607
vn -0.6201 0.2431 0.7459
vn -0.3564 0.2431 0.9022
vn -0.2190 0.0000 0.9757
vn -0.0657 0.2724 0.9599
vn 0.0933 0.0089 0.9956
vn 0.2428 0.2724 0.9310
vn 0.3964 -0.0000 0.9181
vn 0.5178 0.2431 0.8203
vn 0.9181 -0.0089 -0.3963
vn 0.9332 -0.2724 -0.2342
vn 0.8105 -0.2724 -0.5186
vn 0.7810 -0.5257 -0.3372
vn 0.6352 -0.5038 -0.5854
vn -0.0933 -0.0089 -0.9956
vn 0.0657 -0.2724 -0.9599
vn -0.2428 -0.2724 -0.9310
vn -0.0793 -0.5257 -0.8469
vn -0.3605 -0.5038 -0.7850
vn -0.9757 -0.0089 -0.2190
vn -0.8927 -0.2724 -0.3591
vn -0.9605 -0.2724 -0.0568
vn -0.8300 -0.5257 -0.1863
vn -0.8580 -0.5038 0.1003
vn -0.5098 -0.0089 0.8603
vn -0.6174 -0.2724 0.7380
vn -0.3508 -0.2724 0.8959
vn -0.4336 -0.5257 0.7318
vn -0.1697 -0.5038 0.8470
vn 0.6606 -0.0089 0.7506
vn 0.5111 -0.2724 0.8152
vn 0.7437 -0.2724 0.6105
vn 0.5620 -0.5257 0.6386
vn 0.7531 -0.5038 0.4232
vn 0.7287 -0.6650 0.1636
vn 0.5130 -0.8507 0.1151
vn 0.6750 -0.7276 -0.1227
vn 0.4179 -0.8904 -0.1804
vn 0.5522 -0.7275 -0.4071
vn 0.2680 -0.8507 -0.4523
vn 0.3807 -0.6650 -0.6425
vn 0.0919 -0.7276 -0.6799
vn -0.0424 -0.8904 -0.4531
vn -0.2166 -0.7276 -0.6510
vn -0.3473 -0.8507 -0.3947
vn -0.4934 -0.6650 -0.5607
vn -0.6182 -0.7275 -0.2975
vn -0.4441 -0.8904 -0.0997
vn -0.6860 -0.7275 0.0048
vn -0.4827 -0.8507 0.2084
vn -0.6857 -0.6650 0.2960
vn 0.5578 -0.7276 0.3994
vn 0.3253 -0.7276 0.6040
vn 0.3007 -0.8904 0.3417
vn 0.0490 -0.8507 0.5234
vn -0.4740 -0.7275 0.4960
vn -0.2320 -0.8904 0.3916
vn -0.2074 -0.7276 0.6539
usemtl Ball
s 1
f 1/1/1 2/2/2 3/3/3
f 4/4/4 5/5/5 6/6/6
f 1/1/1 3/3/3 7/7/7
f 1/1/1 7/7/7 8/8/8
f 1/1/1 8/8/8 9/9/9
f 4/4/4 6/6/6 10/10/10
f 11/11/11 12/12/12 13/13/13
f 14/14/14 15/15/15 16/16/16
f 17/17/17 18/18/18 19/19/19
f 20/20/20 21/21/21 22/22/22
f 4/4/4 10/10/10 23/23/23
f 11/11/11 13/13/13 24/24/24
f 14/14/14 16/16/16 25/25/25
f 17/17/17 19/19/19 26/26/26
f 20/20/20 22/22/22 27/27/27
f 28/28/28 29/29/29 30/30/30
f 31/31/31 32/32/32 33/33/33
f 34/34/34 35/35/35 36/36/36
f 37/37/37 38/38/38 39/39/39
f 40/40/40 41/41/41 42/42/42
f 43/43/43 44/44/44 45/45/45
f 46/46/46 47/47/47 43/43/43
f 42/48/42 48/49/48 46/46/46
f 43/43/43 47/47/47 44/44/44
f 47/47/47 49/50/49 44/44/44
f 46/46/46 48/49/48 47/47/47
f 48/49/48 50/51/50 47/47/47
f 47/47/47 50/51/50 49/50/49
f 50/51/50 39/39/39 49/50/49
f 42/42/42 41/41/41 48/52/48
f 41/53/41 51/54/51 48/49/48
f 48/49/48 51/54/51 50/51/50
f 51/55/51 52/56/52 50/57/50
f 50/51/50 52/58/52 39/39/39
f 52/56/52 37/59/37 39/60/39
f 44/44/44 53/61/53 45/45/45
f 49/50/49 54/62/54 44/44/44
f 39/39/39 55/63/55 49/50/49
f 44/44/44 54/62/54 53/61/53
f 54/62/54 56/64/56 53/61/53
f 49/50/49 55/63/55 54/62/54
f 55/63/55 57/65/57 54/62/54
f 54/62/54 57/65/57 56/64/56
f 57/65/57 36/66/36 56/64/56
f 39/39/39 38/38/38 55/63/55
f 38/38/38 58/67/58 55/63/55
f 55/63/55 58/67/58 57/65/57
f 58/67/58 59/68/59 57/65/57
f 57/65/57 59/68/59 36/66/36
f 59/68/59 34/69/34 36/66/36
f 53/61/53 60/70/60 45/45/45
f 56/64/56 61/71/61 53/61/53
f 36/66/36 62/72/62 56/64/56
f 53/61/53 61/71/61 60/70/60
f 61/71/61 63/73/63 60/70/60
f 56/64/56 62/72/62 61/71/61
f 62/72/62 64/74/64 61/71/61
f 61/71/61 64/74/64 63/73/63
f 64/75/64 33/33/33 63/76/63
f 36/66/36 35/77/35 62/72/62
f 35/77/35 65/78/65 62/72/62
f 62/72/62 65/78/65 64/74/64
f 65/79/65 66/80/66 64/75/64
f 64/75/64 66/80/66 33/33/33
f 66/80/66 31/31/31 33/33/33
f 60/70/60 67/81/67 45/45/45
f 63/73/63 68/82/68 60/70/60
f 33/33/33 69/83/69 63/76/63
f 60/70/60 68/82/68 67/81/67
f 68/82/68 70/84/70 67/81/67
f 63/73/63 69/85/69 68/82/68
f 69/83/69 71/86/71 68/87/68
f 68/82/68 71/88/71 70/84/70
f 71/89/71 30/30/30 70/90/70
f 33/33/33 32/32/32 69/83/69
f 32/32/32 72/91/72 69/83/69
f 69/83/69 72/91/72 71/86/71
f 72/91/72 73/92/73 71/86/71
f 71/86/71 73/92/73 30/93/30
f 73/94/73 28/28/28 30/30/30
f 67/81/67 43/43/43 45/45/45
f 70/84/70 74/95/74 67/81/67
f 30/30/30 75/96/75 70/90/70
f 67/81/67 74/95/74 43/43/43
f 74/95/74 46/46/46 43/43/43
f 70/90/70 75/96/75 74/97/74
f 75/96/75 76/98/76 74/97/74
f 74/95/74 76/99/76 46/46/46
f 76/98/76 42/42/42 46/100/46
f 30/30/30 29/29/29 75/96/75
f 29/29/29 77/101/77 75/96/75
f 75/96/75 77/101/77 76/98/76
f 77/101/77 78/102/78 76/98/76
f 76/98/76 78/102/78 42/42/42
f 78/102/78 40/40/40 42/42/42
f 79/103/79 41/41/41 40/40/40
f 80/104/80 81/105/81 79/106/79
f 27/27/27 82/107/82 80/104/80
f 79/106/79 81/105/81 41/108/41
f 81/105/81 51/55/51 41/108/41
f 80/104/80 82/107/82 81/105/81
f 82/107/82 83/109/83 81/105/81
f 81/105/81 83/109/83 51/55/51
f 83/109/83 52/56/52 51/55/51
f 27/27/27 22/22/22 82/107/82
f 22/22/22 84/110/84 82/107/82
f 82/107/82 84/110/84 83/109/83
f 84/110/84 85/111/85 83/109/83
f 83/109/83 85/111/85 52/56/52
f 85/111/85 37/59/37 52/56/52
f 86/112/86 38/113/38 37/59/37
f 87/114/87 88/115/88 86/112/86
f 26/26/26 89/116/89 87/117/87
f 86/112/86 88/115/88 38/113/38
f 88/118/88 58/67/58 38/38/38
f 87/117/87 89/116/89 88/119/88
f 89/116/89 90/120/90 88/119/88
f 88/119/88 90/120/90 58/121/58
f 90/120/90 59/122/59 58/121/58
f 26/26/26 19/19/19 89/116/89
f 19/19/19 91/123/91 89/116/89
f 89/116/89 91/123/91 90/120/90
f 91/123/91 92/124/92 90/120/90
f 90/120/90 92/124/92 59/122/59
f 92/124/92 34/34/34 59/122/59
f 93/125/93 35/35/35 34/34/34
f 94/126/94 95/127/95 93/125/93
f 25/25/25 96/128/96 94/126/94
f 93/125/93 95/127/95 35/35/35
f 95/127/95 65/129/65 35/35/35
f 94/126/94 96/128/96 95/127/95
f 96/128/96 97/130/97 95/127/95
f 95/127/95 97/130/97 65/129/65
f 97/131/97 66/80/66 65/79/65
f 25/25/25 16/16/16 96/128/96
f 16/16/16 98/132/98 96/128/96
f 96/133/96 98/134/98 97/131/97
f 98/134/98 99/135/99 97/131/97
f 97/131/97 99/135/99 66/80/66
f 99/135/99 31/31/31 66/80/66
f 100/136/100 32/32/32 31/31/31
f 101/137/101 102/138/102 100/136/100
f 24/24/24 103/139/103 101/137/101
f 100/136/100 102/138/102 32/32/32
f 102/138/102 72/91/72 32/32/32
f 101/137/101 103/139/103 102/138/102
f 103/139/103 104/140/104 102/138/102
f 102/138/102 104/140/104 72/91/72
f 104/140/104 73/92/73 72/91/72
f 24/24/24 13/13/13 103/139/103
f 13/13/13 105/141/105 103/139/103
f 103/139/103 105/141/105 104/140/104
f 105/141/105 106/142/106 104/140/104
f 104/140/104 106/142/106 73/92/73
f 106/143/106 28/28/28 73/94/73
f 107/144/107 29/29/29 28/28/28
f 108/145/108 109/146/109 107/144/107
f 23/23/23 110/147/110 108/145/108
f 107/144/107 109/146/109 29/29/29
f 109/146/109 77/101/77 29/29/29
f 108/145/108 110/147/110 109/146/109
f 110/147/110 111/148/111 109/146/109
f 109/146/109 111/148/111 77/101/77
f 111/148/111 78/102/78 77/101/77
f 23/23/23 10/10/10 110/147/110
f 10/10/10 112/149/112 110/147/110
f 110/147/110 112/149/112 111/148/111
f 112/149/112 113/150/113 111/148/111
f 111/148/111 113/150/113 78/102/78
f 113/150/113 40/40/40 78/102/78
f 85/111/85 86/112/86 37/59/37
f 84/110/84 114/151/114 85/111/85
f 22/22/22 115/152/115 84/110/84
f 85/111/85 114/151/114 86/112/86
f 114/151/114 87/114/87 86/112/86
f 84/110/84 115/152/115 114/151/114
f 115/152/115 116/153/116 114/151/114
f 114/151/114 116/153/116 87/114/87
f 116/153/116 26/154/26 87/114/87
f 22/22/22 21/21/21 115/152/115
f 21/21/21 117/155/117 115/152/115
f 115/152/115 117/155/117 116/153/116
f 117/155/117 118/156/118 116/153/116
f 116/153/116 118/156/118 26/154/26
f 118/157/118 17/17/17 26/26/26
f 92/124/92 93/125/93 34/34/34
f 91/123/91 119/158/119 92/124/92
f 19/19/19 120/159/120 91/123/91
f 92/124/92 119/158/119 93/125/93
f 119/158/119 94/126/94 93/125/93
f 91/123/91 120/159/120 119/158/119
f 120/159/120 121/160/121 119/158/119
f 119/158/119 121/160/121 94/126/94
f 121/160/121 25/25/25 94/126/94
f 19/19/19 18/18/18 120/159/120
f 18/18/18 122/161/122 120/159/120
f 120/159/120 122/161/122 121/160/121
f 122/161/122 123/162/123 121/160/121
f 121/160/121 123/162/123 25/25/25
f 123/162/123 14/14/14 25/25/25
f 99/135/99 100/136/100 31/31/31
f 98/134/98 124/163/124 99/135/99
f 16/164/16 125/165/125 98/134/98
f 99/135/99 124/163/124 100/136/100
f 124/163/124 101/137/101 100/136/100
f 98/134/98 125/165/125 124/163/124
f 125/165/125 126/166/126 124/163/124
f 124/163/124 126/166/126 101/137/101
f 126/166/126 24/24/24 101/137/101
f 16/164/16 15/167/15 125/165/125
f 15/167/15 127/168/127 125/165/125
f 125/165/125 127/168/127 126/166/126
f 127/168/127 128/169/128 126/166/126
f 126/166/126 128/169/128 24/24/24
f 128/169/128 11/11/11 24/24/24
f 106/143/106 107/144/107 28/28/28
f 105/170/105 129/171/129 106/143/106
f 13/13/13 130/172/130 105/141/105
f 106/143/106 129/171/129 107/144/107
f 129/171/129 108/145/108 107/144/107
f 105/170/105 130/173/130 129/171/129
f 130/173/130 131/174/131 129/171/129
f 129/171/129 131/174/131 108/145/108
f 131/174/131 23/23/23 108/145/108
f 13/13/13 12/12/12 130/172/130
f 12/175/12 132/176/132 130/177/130
f 130/173/130 132/178/132 131/174/131
f 132/178/132 133/179/133 131/174/131
f 131/174/131 133/179/133 23/23/23
f 133/179/133 4/4/4 23/23/23
f 113/150/113 79/103/79 40/40/40
f 112/149/112 134/180/134 113/150/113
f 10/10/10 135/181/135 112/149/112
f 113/150/113 134/180/134 79/103/79
f 134/180/134 80/182/80 79/103/79
f 112/149/112 135/181/135 134/180/134
f 135/181/135 136/183/136 134/180/134
f 134/184/134 136/185/136 80/104/80
f 136/185/136 27/27/27 80/104/80
f 10/10/10 6/6/6 135/181/135
f 6/6/6 137/186/137 135/181/135
f 135/181/135 137/186/137 136/183/136
f 137/187/137 138/188/138 136/185/136
f 136/185/136 138/188/138 27/27/27
f 138/188/138 20/20/20 27/27/27
f 139/189/139 21/21/21 20/20/20
f 140/190/140 141/191/141 139/189/139
f 9/9/9 142/192/142 140/193/140
f 139/189/139 141/191/141 21/21/21
f 141/191/141 117/155/117 21/21/21
f 140/193/140 142/192/142 141/194/141
f 142/195/142 143/196/143 141/191/141
f 141/191/141 143/196/143 117/155/117
f 143/196/143 118/156/118 117/155/117
f 9/9/9 8/8/8 142/192/142
f 8/8/8 144/197/144 142/192/142
f 142/192/142 144/197/144 143/198/143
f 144/199/144 145/200/145 143/201/143
f 143/196/143 145/202/145 118/156/118
f 145/200/145 17/17/17 118/157/118
f 145/200/145 18/18/18 17/17/17
f 144/199/144 146/203/146 145/200/145
f 8/8/8 147/204/147 144/197/144
f 145/200/145 146/203/146 18/18/18
f 146/203/146 122/161/122 18/18/18
f 144/199/144 147/205/147 146/203/146
f 147/205/147 148/206/148 146/203/146
f 146/203/146 148/206/148 122/161/122
f 148/206/148 123/162/123 122/161/122
f 8/8/8 7/7/7 147/204/147
f 7/7/7 149/207/149 147/204/147
f 147/204/147 149/207/149 148/208/148
f 149/209/149 150/210/150 148/206/148
f 148/206/148 150/210/150 123/162/123
f 150/210/150 14/14/14 123/162/123
f 150/210/150 15/15/15 14/14/14
f 149/207/149 151/211/151 150/212/150
f 7/7/7 152/213/152 149/207/149
f 150/210/150 151/214/151 15/15/15
f 151/211/151 127/215/127 15/216/15
f 149/207/149 152/213/152 151/211/151
f 152/213/152 153/217/153 151/211/151
f 151/211/151 153/217/153 127/215/127
f 153/218/153 128/169/128 127/168/127
f 7/7/7 3/3/3 152/213/152
f 3/3/3 154/219/154 152/213/152
f 152/213/152 154/219/154 153/217/153
f 154/219/154 155/220/155 153/217/153
f 153/217/153 155/220/155 128/221/128
f 155/222/155 11/11/11 128/169/128
f 138/188/138 139/189/139 20/20/20
f 137/187/137 156/223/156 138/188/138
f 6/224/6 157/225/157 137/226/137
f 138/188/138 156/223/156 139/189/139
f 156/223/156 140/190/140 139/189/139
f 137/226/137 157/225/157 156/227/156
f 157/225/157 158/228/158 156/227/156
f 156/227/156 158/228/158 140/193/140
f 158/228/158 9/9/9 140/193/140
f 6/224/6 5/229/5 157/225/157
f 5/229/5 159/230/159 157/225/157
f 157/225/157 159/230/159 158/228/158
f 159/230/159 2/2/2 158/228/158
f 158/228/158 2/2/2 9/9/9
f 2/2/2 1/1/1 9/9/9
f 155/220/155 12/175/12 11/231/11
f 154/219/154 160/232/160 155/220/155
f 3/3/3 161/233/161 154/219/154
f 155/220/155 160/232/160 12/175/12
f 160/232/160 132/176/132 12/175/12
f 154/219/154 161/233/161 160/232/160
f 161/233/161 162/234/162 160/232/160
f 160/232/160 162/234/162 132/176/132
f 162/234/162 133/235/133 132/176/132
f 3/3/3 2/2/2 161/233/161
f 2/2/2 159/230/159 161/233/161
f 161/233/161 159/230/159 162/234/162
f 159/230/159 5/229/5 162/234/162
f 162/234/162 5/229/5 133/235/133
f 5/229/5 4/236/4 133/235/133
