# Blender v2.80 (sub 75) OBJ File: ''
# www.blender.org
mtllib board.mtl
o Cube.004_Cube.007
v 16.562021 3.595034 35.270355
v 8.152432 -1.278003 35.270355
v 16.562021 -1.278003 35.270355
v 16.562019 -1.278005 26.860765
v 16.562019 3.595032 26.860765
v 8.152432 3.595034 35.270359
v -14.502120 -1.278003 35.270359
v -22.911713 3.595034 35.270359
v -22.911713 -1.278003 35.270351
v -22.911715 3.595032 26.860767
v -22.911715 -1.278005 26.860764
v -14.502120 3.595034 35.270359
v 16.837107 3.442389 -30.927170
v -19.232315 -1.293462 -30.927158
v 16.837103 -1.293462 -30.927170
v -19.232315 3.442389 -30.927160
v -19.232319 -1.293463 -35.183880
v -19.232313 3.442389 -35.183880
v 16.837101 -1.293465 -35.183887
v 16.837105 3.442389 -35.183887
v -16.955267 -1.208918 -26.894672
v -16.955259 3.289380 20.716181
v -16.955259 -1.208907 20.716187
v -19.341856 -1.208907 20.716188
v -19.341856 3.289380 20.716181
v -19.341864 -1.208918 -26.894670
v -19.341864 3.289368 -26.894678
v -17.173872 3.515394 -26.806061
v -5.918989 -1.198393 -26.806057
v -17.173872 -1.198393 -26.806061
v -17.173872 -1.198393 -22.257864
v -17.173872 3.515395 -22.257864
v -5.918989 3.515394 -26.806063
v 5.918981 -1.198393 -26.806057
v 17.176422 3.515394 -26.806065
v 17.176422 -1.198393 -26.806065
v 17.176422 -1.198393 -22.257868
v 17.176422 3.515395 -22.257868
v 5.918981 3.515394 -26.806065
v -23.156408 -1.328761 -34.727158
v 16.968166 -1.328741 34.727158
v 16.968155 -1.328761 -34.727165
v -16.955267 3.289368 -26.894678
v -23.156397 -1.328741 34.727165
v -22.340473 3.542861 -35.183430
v -22.340462 -1.247056 34.490047
v -22.340473 -1.247076 -35.183430
v 17.176432 3.542876 35.388779
v -22.340462 3.542876 34.490047
v -23.573759 3.542876 35.388786
v 17.176432 -1.247058 35.388779
v 15.945689 -1.247058 34.490040
v 17.176420 -1.247077 -35.724361
v 15.945679 -1.247077 -35.183437
v 15.945689 3.542876 34.490040
v 17.176420 3.542857 -35.724361
v 15.945679 3.542861 -35.183437
v -23.573771 -1.247076 -35.724354
v -23.573759 -1.247056 35.388786
v -23.573771 3.542859 -35.724354
vt 0.308459 0.764493
vt 0.344291 0.704546
vt 0.344291 0.764493
vt 0.557321 0.749804
vt 0.521489 0.689318
vt 0.557321 0.689318
vt 0.521484 0.566406
vt 0.565430 0.522461
vt 0.565430 0.609375
vt 0.521489 0.584241
vt 0.459651 0.584241
vt 0.521489 0.522457
vt 0.237964 0.633951
vt 0.273797 0.708005
vt 0.237964 0.708005
vt 0.596222 0.754294
vt 0.560390 0.694348
vt 0.596222 0.694348
vt 0.451758 0.752734
vt 0.415926 0.692520
vt 0.451758 0.692520
vt 0.416016 0.583984
vt 0.354492 0.583984
vt 0.416016 0.522461
vt 0.415926 0.566145
vt 0.459651 0.522457
vt 0.459651 0.609832
vt 0.237964 0.633951
vt 0.202132 0.710403
vt 0.202132 0.633951
vt 0.070045 0.522457
vt 0.035222 0.779573
vt 0.035221 0.522457
vt 0.521165 0.653828
vt 0.490660 0.619034
vt 0.521165 0.619034
vt 0.104869 0.522457
vt 0.070045 0.777132
vt 0.070045 0.522457
vt 0.490660 0.619034
vt 0.521303 0.584241
vt 0.521303 0.619034
vt 0.104869 0.787453
vt 0.136170 0.522457
vt 0.136170 0.787453
vt 0.166992 0.522461
vt 0.135742 0.787109
vt 0.135742 0.522461
vt 0.632812 0.852539
vt 0.599609 0.510742
vt 0.632812 0.510742
vt 0.149793 0.787453
vt 0.166820 0.820501
vt 0.149793 0.820501
vt 0.665444 0.510270
vt 0.632368 0.851169
vt 0.632368 0.510270
vt 0.806641 0.761719
vt 0.823242 0.794922
vt 0.806641 0.794922
vt 0.788658 0.860059
vt 0.806207 0.510270
vt 0.806207 0.860059
vt 0.771484 0.860352
vt 0.789062 0.510742
vt 0.789062 0.860352
vt 0.167470 0.713418
vt 0.202132 0.633951
vt 0.202132 0.713418
vt 0.200064 0.748050
vt 0.167470 0.782681
vt 0.167470 0.748050
vt 0.449219 0.692383
vt 0.416016 0.692383
vt 0.449219 0.609375
vt 0.565215 0.681828
vt 0.596222 0.605163
vt 0.596222 0.694348
vt 0.308459 0.706092
vt 0.273797 0.633951
vt 0.308459 0.633951
vt 0.521489 0.609832
vt 0.556150 0.689318
vt 0.521489 0.689318
vt 0.200212 0.748050
vt 0.167470 0.713418
vt 0.200212 0.713418
vt 0.459961 0.661133
vt 0.490234 0.583984
vt 0.490234 0.673828
vt 0.598659 0.605163
vt 0.565215 0.605163
vt 0.598659 0.522457
vt 0.388672 0.583984
vt 0.354492 0.672852
vt 0.354492 0.583984
vt 0.894335 0.000000
vt 0.599291 0.510270
vt 0.599291 0.000000
vt 0.308459 0.704546
vt 0.521489 0.749804
vt 0.273797 0.633951
vt 0.560390 0.754294
vt 0.415926 0.752734
vt 0.237964 0.710403
vt 0.070045 0.779573
vt 0.490660 0.653828
vt 0.104869 0.777132
vt 0.490660 0.584241
vt 0.104869 0.522457
vt 0.166992 0.787109
vt 0.599609 0.852539
vt 0.166820 0.787453
vt 0.665039 0.510742
vt 0.665039 0.851562
vt 0.632812 0.851562
vt 0.823242 0.761719
vt 0.788658 0.510270
vt 0.771484 0.510742
vt 0.166992 0.713867
vt 0.166992 0.633789
vt 0.202148 0.633789
vt 0.200064 0.782681
vt 0.308594 0.706055
vt 0.273438 0.706055
vt 0.273438 0.633789
vt 0.521484 0.609375
vt 0.555664 0.609375
vt 0.555664 0.689453
vt 0.167470 0.748050
vt 0.388749 0.584241
vt 0.388750 0.672576
vt 0.354088 0.672576
vt 0.894336 0.510270
vt 0.964778 0.501130
vt 1.000000 0.000000
vt 1.000000 0.501130
vt 0.000000 0.522461
vt 0.291016 0.515625
vt 0.299805 0.522461
vt 0.599291 0.522457
vt 0.308714 0.515854
vt 0.590241 0.515854
vt 0.308714 0.003974
vt 0.599291 0.000000
vt 0.590241 0.003974
vt 0.008789 0.515625
vt 0.000000 0.000000
vt 0.008789 0.003906
vt 0.299645 0.000000
vt 0.299645 0.522457
vt 0.894336 0.511484
vt 0.929557 0.000000
vt 0.929557 0.511484
vt 0.035221 0.522457
vt 0.000000 0.792784
vt 0.000000 0.522457
vt 1.000000 0.501130
vt 0.964779 1.000000
vt 0.964778 0.501130
vt 0.964778 0.509179
vt 0.929557 0.000000
vt 0.964778 0.000000
vt 0.735887 0.783187
vt 0.771109 0.510270
vt 0.771109 0.783187
vt 0.700666 0.510270
vt 0.665444 0.800752
vt 0.665444 0.510270
vt 0.291016 0.003906
vt 0.299805 0.000000
vt 0.700195 0.797852
vt 0.736328 0.510742
vt 0.736328 0.797852
vt 0.964778 0.000000
vt 0.308594 0.003906
vt 0.299805 0.000000
vt 0.599609 0.000000
vt 0.894336 0.000000
vt 0.035221 0.792784
vt 1.000000 1.000000
vt 0.929557 0.509179
vt 0.736328 0.783203
vt 0.736328 0.510742
vt 0.771484 0.510742
vt 0.700666 0.800752
vt 0.700195 0.510742
vn 0.0000 0.0000 1.0000
vn 1.0000 0.0000 -0.0000
vn -0.0000 1.0000 -0.0000
vn 0.0000 -1.0000 0.0000
vn -0.7071 0.0000 -0.7071
vn -1.0000 -0.0000 0.0000
vn 0.7071 0.0000 -0.7071
vn -0.0000 0.0000 -1.0000
vn 0.3747 0.0000 0.9272
vn -0.3746 0.0000 0.9272
vn 0.3015 0.9045 0.3015
vn 0.3015 -0.9045 -0.3015
vn 0.3015 -0.9045 0.3015
vn 0.5774 0.5774 0.5773
vn 0.3015 0.9045 -0.3015
vn -0.5774 0.5774 0.5774
vn 0.5774 -0.5774 0.5774
vn -0.3015 -0.9045 -0.3015
vn 0.5774 -0.5773 -0.5774
vn -0.3015 -0.9045 0.3015
vn -0.3015 0.9045 -0.3015
vn 0.5774 0.5773 -0.5774
vn -0.3015 0.9045 0.3015
vn -0.5774 -0.5773 -0.5774
vn -0.5774 -0.5774 0.5774
vn -0.5774 0.5773 -0.5774
usemtl Material.001
s off
f 1/1/1 2/2/1 3/3/1
f 4/4/2 1/5/2 3/6/2
f 1/7/3 5/8/3 6/9/3
f 3/10/4 2/11/4 4/12/4
f 2/13/5 5/14/5 4/15/5
f 7/16/1 8/17/1 9/18/1
f 9/19/6 10/20/6 11/21/6
f 8/22/3 12/23/3 10/24/3
f 9/25/4 11/26/4 7/27/4
f 7/28/7 10/29/7 12/30/7
f 13/31/1 14/32/1 15/33/1
f 16/34/6 17/35/6 14/36/6
f 18/37/8 19/38/8 17/39/8
f 19/40/2 13/41/2 15/42/2
f 17/43/4 15/44/4 14/45/4
f 16/46/3 20/47/3 18/48/3
f 21/49/2 22/50/2 23/51/2
f 22/52/1 24/53/1 23/54/1
f 25/55/6 26/56/6 24/57/6
f 27/58/8 21/59/8 26/60/8
f 24/61/4 21/62/4 23/63/4
f 22/64/3 27/65/3 25/66/3
f 28/67/8 29/68/8 30/69/8
f 31/70/6 28/71/6 30/72/6
f 28/73/3 32/74/3 33/75/3
f 30/76/4 29/77/4 31/78/4
f 29/79/9 32/80/9 31/81/9
f 34/82/8 35/83/8 36/84/8
f 37/85/2 35/86/2 38/87/2
f 35/88/3 39/89/3 38/90/3
f 36/91/4 37/92/4 34/93/4
f 34/94/10 38/95/10 39/96/10
f 40/97/3 41/98/3 42/99/3
f 1/1/1 6/100/1 2/2/1
f 4/4/2 5/101/2 1/5/2
f 2/13/5 6/102/5 5/14/5
f 7/16/1 12/103/1 8/17/1
f 9/19/6 8/104/6 10/20/6
f 7/28/7 11/105/7 10/29/7
f 13/31/1 16/106/1 14/32/1
f 16/34/6 18/107/6 17/35/6
f 18/37/8 20/108/8 19/38/8
f 19/40/2 20/109/2 13/41/2
f 17/43/4 19/110/4 15/44/4
f 16/46/3 13/111/3 20/47/3
f 21/49/2 43/112/2 22/50/2
f 22/52/1 25/113/1 24/53/1
f 25/114/6 27/115/6 26/116/6
f 27/58/8 43/117/8 21/59/8
f 24/61/4 26/118/4 21/62/4
f 22/64/3 43/119/3 27/65/3
f 28/120/8 33/121/8 29/122/8
f 31/70/6 32/123/6 28/71/6
f 29/124/9 33/125/9 32/126/9
f 34/127/8 39/128/8 35/129/8
f 37/85/2 36/130/2 35/86/2
f 34/131/10 37/132/10 38/133/10
f 40/97/3 44/134/3 41/98/3
s 1
f 45/135/11 46/136/12 47/137/13
f 48/138/14 49/139/15 50/140/16
f 51/141/17 46/142/12 52/143/18
f 47/144/13 53/145/19 54/146/20
f 55/147/21 56/148/22 57/149/23
f 58/150/24 46/142/12 59/151/25
f 56/152/22 51/153/17 53/154/19
f 49/155/15 52/156/18 46/157/12
f 52/143/18 53/145/19 51/141/17
f 55/158/21 54/159/20 52/160/18
f 59/161/25 60/162/26 58/163/24
f 57/164/23 47/165/13 54/166/20
f 48/167/14 59/168/25 51/169/17
f 45/170/11 56/148/22 60/171/26
f 60/172/26 53/173/19 58/174/24
f 60/171/26 49/139/15 45/170/11
f 45/135/11 49/175/15 46/136/12
f 48/138/14 55/147/21 49/139/15
f 51/141/17 59/151/25 46/142/12
f 47/176/13 58/177/24 53/178/19
f 55/147/21 48/138/14 56/148/22
f 58/150/24 47/144/13 46/142/12
f 56/152/22 48/179/14 51/153/17
f 49/155/15 55/180/21 52/156/18
f 52/143/18 54/146/20 53/145/19
f 55/158/21 57/181/23 54/159/20
f 59/161/25 50/182/16 60/162/26
f 57/183/23 45/184/11 47/185/13
f 48/167/14 50/186/16 59/168/25
f 45/170/11 57/149/23 56/148/22
f 60/172/26 56/187/22 53/173/19
f 60/171/26 50/140/16 49/139/15
