# Blender v2.79 (sub 0) OBJ File: ''
# www.blender.org
mtllib SPin.mtl
o Circle
v 0.000000 0.000000 -0.177339
v -0.125398 0.000000 -0.125398
v -0.177339 0.000000 0.000000
v -0.125398 0.000000 0.125398
v 0.000000 0.000000 0.177339
v 0.125398 0.000000 0.125398
v 0.177339 0.000000 -0.000000
v 0.125398 0.000000 -0.125398
v 0.000000 0.455695 -0.375105
v -0.265239 0.455695 -0.265239
v -0.375105 0.455695 0.000000
v -0.265239 0.455695 0.265239
v 0.000000 0.455695 0.375105
v 0.265239 0.455695 0.265239
v 0.375105 0.455695 -0.000000
v 0.265239 0.455695 -0.265239
v 0.000000 0.991219 -0.496137
v -0.350821 0.991219 -0.350821
v -0.496137 0.991219 0.000000
v -0.350821 0.991219 0.350821
v 0.000000 0.991219 0.496137
v 0.350821 0.991219 0.350821
v 0.496137 0.991219 -0.000000
v 0.350821 0.991219 -0.350821
v 0.000000 1.418087 -0.455704
v -0.322231 1.418087 -0.322231
v -0.455704 1.418087 0.000000
v -0.322231 1.418087 0.322231
v 0.000000 1.418087 0.455704
v 0.322231 1.418087 0.322231
v 0.455704 1.418087 -0.000000
v 0.322231 1.418087 -0.322231
v 0.000000 1.928110 -0.266879
v -0.188712 1.928110 -0.188712
v -0.266879 1.928110 0.000000
v -0.188712 1.928110 0.188712
v 0.000000 1.928110 0.266879
v 0.188712 1.928110 0.188712
v 0.266879 1.928110 -0.000000
v 0.188712 1.928110 -0.188712
v 0.000000 2.168724 -0.184901
v -0.130745 2.168724 -0.130745
v -0.184901 2.168724 0.000000
v -0.130745 2.168724 0.130745
v 0.000000 2.168724 0.184901
v 0.130745 2.168724 0.130745
v 0.184901 2.168724 -0.000000
v 0.130745 2.168724 -0.130745
v 0.000000 2.355440 -0.163742
v -0.115783 2.355440 -0.115783
v -0.163742 2.355440 0.000000
v -0.115783 2.355440 0.115783
v 0.000000 2.355440 0.163742
v 0.115783 2.355440 0.115783
v 0.163742 2.355440 -0.000000
v 0.115783 2.355440 -0.115783
v 0.000000 2.944461 -0.256830
v -0.181606 2.944461 -0.181606
v -0.256830 2.944461 0.000000
v -0.181606 2.944461 0.181606
v 0.000000 2.944461 0.256830
v 0.181606 2.944461 0.181606
v 0.256830 2.944461 -0.000000
v 0.181606 2.944461 -0.181606
v 0.000000 3.043786 -0.263036
v -0.185995 3.043786 -0.185995
v -0.263036 3.043786 0.000000
v -0.185995 3.043786 0.185995
v 0.000000 3.043786 0.263036
v 0.185995 3.043786 0.185995
v 0.263036 3.043786 -0.000000
v 0.185995 3.043786 -0.185995
v 0.000000 3.209542 -0.227241
v -0.160683 3.209542 -0.160683
v -0.227241 3.209542 0.000000
v -0.160683 3.209542 0.160683
v 0.000000 3.209542 0.227241
v 0.160683 3.209542 0.160683
v 0.227241 3.209542 -0.000000
v 0.160683 3.209542 -0.160683
v 0.000000 3.309798 -0.150248
v -0.106241 3.309798 -0.106241
v -0.150248 3.309798 0.000000
v -0.106241 3.309798 0.106241
v 0.000000 3.309798 0.150248
v 0.106241 3.309798 0.106241
v 0.150248 3.309798 -0.000000
v 0.106241 3.309798 -0.106241
v 0.000000 3.361931 -0.058579
v -0.041422 3.361931 -0.041422
v -0.058579 3.361931 0.000000
v -0.041422 3.361931 0.041422
v 0.000000 3.361931 0.058579
v 0.041422 3.361931 0.041422
v 0.058579 3.361931 -0.000000
v 0.041422 3.361931 -0.041422
vt 0.661853 0.317097
vt 0.595971 0.203907
vt 0.627118 0.203907
vt 0.627118 0.203907
vt 0.595971 0.317097
vt 0.595971 0.203907
vt 0.530088 0.317097
vt 0.595971 0.203907
vt 0.564823 0.203907
vt 0.530088 0.317097
vt 0.595971 0.203907
vt 0.564823 0.203907
vt 0.595971 0.317097
vt 0.595971 0.317097
vt 0.564823 0.203907
vt 0.595971 0.317097
vt 0.627118 0.203907
vt 0.508830 0.450115
vt 0.508830 0.450115
vt 0.595971 0.450115
vt 0.595971 0.450115
vt 0.530088 0.317097
vt 0.595971 0.450115
vt 0.661853 0.317097
vt 0.683111 0.450115
vt 0.683111 0.450115
vt 0.661853 0.317097
vt 0.661116 0.209044
vt 0.500000 -0.004390
vt 0.675411 -0.004390
vt 0.661116 0.209044
vt 0.500000 -0.004390
vt 0.675411 -0.004390
vt 0.338884 0.209044
vt 0.500000 -0.004390
vt 0.324589 -0.004390
vt 0.338884 0.209044
vt 0.500000 -0.004390
vt 0.324589 -0.004390
vt 0.500000 0.209044
vt 0.500000 0.209044
vt 0.324589 -0.004390
vt 0.500000 0.209044
vt 0.500000 0.209044
vt 0.675411 -0.004390
vt 0.500000 0.464055
vt 0.500000 0.464055
vt 0.661116 0.209044
vt 0.594356 0.464055
vt 0.594356 0.464055
vt 0.405644 0.464055
vt 0.405644 0.464055
vt 0.500000 0.464055
vt 0.500000 0.464055
vt 0.338884 0.209044
vt 0.500000 0.584362
vt 0.500000 0.584362
vt 0.405644 0.464055
vt 0.500000 0.584362
vt 0.500000 0.584362
vt 0.594356 0.464055
vt 0.565372 0.584362
vt 0.565372 0.584362
vt 0.434628 0.584362
vt 0.434628 0.584362
vt 0.565372 0.632213
vt 0.500000 0.688462
vt 0.500000 0.632213
vt 0.442108 0.688462
vt 0.500000 0.632213
vt 0.434628 0.632213
vt 0.442108 0.688462
vt 0.500000 0.632213
vt 0.434628 0.632213
vt 0.500000 0.688462
vt 0.565372 0.632213
vt 0.500000 0.688462
vt 0.434628 0.632213
vt 0.500000 0.632213
vt 0.500000 0.688462
vt 0.565372 0.632213
vt 0.557892 0.688462
vt 0.500000 0.822816
vt 0.557892 0.688462
vt 0.500000 0.822816
vt 0.500000 0.822816
vt 0.409197 0.822816
vt 0.500000 0.822816
vt 0.442108 0.688462
vt 0.557892 0.688462
vt 0.887549 0.400141
vt 0.796746 0.350478
vt 0.887549 0.350478
vt 0.887549 0.400141
vt 0.796746 0.350478
vt 0.887549 0.350478
vt 0.887549 0.400141
vt 0.978352 0.350478
vt 0.887549 0.350478
vt 0.980546 0.400141
vt 0.978352 0.350478
vt 0.980546 0.400141
vt 0.978352 0.350478
vt 0.794552 0.400141
vt 0.794552 0.400141
vt 0.887549 0.350478
vt 0.796746 0.350478
vt 0.887549 0.400141
vt 0.807207 0.483019
vt 0.887549 0.483019
vt 0.807207 0.483019
vt 0.794552 0.400141
vt 0.887549 0.483019
vt 0.887549 0.483019
vt 0.980546 0.400141
vt 0.967891 0.483019
vt 0.967891 0.483019
vt 0.807207 0.483019
vt 0.940670 0.533147
vt 0.887549 0.483019
vt 0.940670 0.533147
vt 0.834428 0.533147
vt 0.834428 0.533147
vt 0.834428 0.533147
vt 0.940670 0.533147
vt 0.967891 0.483019
vt 0.424876 0.500000
vt 0.479289 0.520711
vt 0.446879 0.553121
vt 0.520711 0.520711
vt 0.575124 0.500000
vt 0.553121 0.553121
vt 0.520711 0.479289
vt 0.500000 0.424876
vt 0.553121 0.446879
vt 0.479289 0.479289
vt 0.446879 0.446879
vt 0.500000 0.575124
vt 0.847482 0.179622
vt 0.827994 0.171550
vt 0.836066 0.152062
vt 0.911427 0.092886
vt 0.886990 0.151882
vt 0.827994 0.127445
vt 0.508830 0.450115
vt 0.595971 0.450115
vt 0.683111 0.450115
vt 0.434628 0.584362
vt 0.565372 0.584362
vt 0.590803 0.822816
vt 0.590803 0.822816
vt 0.409197 0.822816
vt 0.409197 0.822816
vt 0.590803 0.822816
vt 0.887549 0.533147
vt 0.887549 0.533147
vt 0.887549 0.533147
vt 0.887549 0.533147
vt 0.470710 0.500000
vt 0.529290 0.500000
vt 0.500000 0.470710
vt 0.500000 0.529290
vt 0.855554 0.160134
vt 0.855554 0.171550
vt 0.836066 0.179622
vt 0.827994 0.160134
vt 0.847482 0.152062
vt 0.827994 0.092886
vt 0.852431 0.068450
vt 0.886990 0.068450
vt 0.911426 0.127445
vt 0.852431 0.151882
vn 0.8575 -0.3722 -0.3552
vn 0.3552 -0.3722 0.8575
vn -0.8575 -0.3722 0.3552
vn -0.3552 -0.3722 -0.8575
vn 0.3552 -0.3722 -0.8575
vn 0.8575 -0.3722 0.3552
vn -0.3552 -0.3722 0.8575
vn -0.8575 -0.3722 -0.3552
vn -0.9044 -0.2044 0.3746
vn -0.3746 -0.2044 -0.9044
vn 0.3746 -0.2044 -0.9044
vn 0.9044 -0.2044 0.3746
vn -0.3746 -0.2044 0.9044
vn -0.9044 -0.2044 -0.3746
vn 0.9044 -0.2044 -0.3746
vn 0.3746 -0.2044 0.9044
vn 0.9204 0.0872 -0.3812
vn 0.3812 0.0872 0.9204
vn -0.9204 0.0872 0.3812
vn -0.3812 0.0872 -0.9204
vn 0.3812 0.0872 -0.9204
vn 0.9204 0.0872 0.3812
vn -0.3812 0.0872 0.9204
vn -0.9204 0.0872 -0.3812
vn -0.3621 0.3236 0.8742
vn -0.8742 0.3236 -0.3621
vn 0.8742 0.3236 -0.3621
vn 0.3621 0.3236 0.8742
vn -0.8742 0.3236 0.3621
vn -0.3621 0.3236 -0.8742
vn 0.3621 0.3236 -0.8742
vn 0.8742 0.3236 0.3621
vn 0.3650 0.3002 -0.8813
vn 0.8813 0.3002 0.3650
vn -0.3650 0.3002 0.8813
vn -0.8813 0.3002 -0.3650
vn 0.8813 0.3002 -0.3650
vn 0.3650 0.3002 0.8813
vn -0.8813 0.3002 0.3650
vn -0.3650 0.3002 -0.8813
vn 0.3806 0.1041 0.9189
vn -0.9189 0.1041 0.3806
vn -0.3806 0.1041 -0.9189
vn 0.3806 0.1041 -0.9189
vn 0.9189 0.1041 0.3806
vn -0.3806 0.1041 0.9189
vn -0.9189 0.1041 -0.3806
vn 0.9189 0.1041 -0.3806
vn 0.9142 -0.1445 -0.3787
vn 0.3787 -0.1445 0.9142
vn -0.9142 -0.1445 0.3787
vn -0.3787 -0.1445 -0.9142
vn 0.3787 -0.1445 -0.9142
vn 0.9142 -0.1445 0.3787
vn -0.3787 -0.1445 0.9142
vn -0.9142 -0.1445 -0.3787
vn 0.9223 -0.0576 0.3820
vn -0.3820 -0.0576 0.9223
vn -0.9223 -0.0576 -0.3820
vn 0.9223 -0.0576 -0.3820
vn 0.3820 -0.0576 0.9223
vn -0.9223 -0.0576 0.3820
vn -0.3820 -0.0576 -0.9223
vn 0.3820 -0.0576 -0.9223
vn -0.3753 0.1957 -0.9060
vn 0.3753 0.1957 -0.9060
vn 0.9060 0.1957 0.3753
vn -0.3753 0.1957 0.9060
vn -0.9060 0.1957 -0.3753
vn 0.9060 0.1957 -0.3753
vn 0.3753 0.1957 0.9060
vn -0.9060 0.1957 0.3753
vn 0.7535 0.5787 -0.3121
vn 0.3121 0.5787 0.7535
vn -0.7535 0.5787 0.3121
vn -0.3121 0.5787 -0.7535
vn 0.3121 0.5787 -0.7535
vn 0.7535 0.5787 0.3121
vn -0.3121 0.5787 0.7535
vn -0.7535 0.5787 -0.3121
vn -0.4843 0.8516 -0.2006
vn 0.4843 0.8516 -0.2006
vn 0.2006 0.8516 0.4843
vn -0.4843 0.8516 0.2006
vn -0.2006 0.8516 -0.4843
vn 0.2006 0.8516 -0.4843
vn 0.4843 0.8516 0.2006
vn -0.2006 0.8516 0.4843
vn 0.0000 1.0000 0.0000
vn 0.0000 -1.0000 0.0000
usemtl Material
s off
f 16/1/1 7/2/1 8/3/1
f 6/4/2 13/5/2 5/6/2
f 12/7/3 3/8/3 4/9/3
f 10/10/4 1/11/4 2/12/4
f 9/13/5 8/3/5 1/11/5
f 15/14/6 6/15/6 7/2/6
f 13/5/7 4/9/7 5/6/7
f 11/16/8 2/17/8 3/8/8
f 20/18/9 11/16/9 12/7/9
f 18/19/10 9/13/10 10/10/10
f 17/20/11 16/1/11 9/13/11
f 23/21/12 14/22/12 15/14/12
f 13/5/13 20/18/13 12/7/13
f 19/23/14 10/24/14 11/16/14
f 24/25/15 15/14/15 16/1/15
f 22/26/16 13/5/16 14/27/16
f 32/28/17 23/29/17 24/30/17
f 30/31/18 21/32/18 22/33/18
f 28/34/19 19/35/19 20/36/19
f 26/37/20 17/38/20 18/39/20
f 25/40/21 24/30/21 17/38/21
f 31/41/22 22/42/22 23/29/22
f 29/43/23 20/36/23 21/32/23
f 27/44/24 18/45/24 19/35/24
f 37/46/25 28/34/25 29/43/25
f 35/47/26 26/48/26 27/44/26
f 40/49/27 31/41/27 32/28/27
f 38/50/28 29/43/28 30/31/28
f 36/51/29 27/44/29 28/34/29
f 34/52/30 25/40/30 26/37/30
f 33/53/31 32/28/31 25/40/31
f 39/54/32 30/55/32 31/41/32
f 41/56/33 40/49/33 33/53/33
f 47/57/34 38/58/34 39/54/34
f 45/59/35 36/51/35 37/46/35
f 43/60/36 34/61/36 35/47/36
f 48/62/37 39/54/37 40/49/37
f 46/63/38 37/46/38 38/50/38
f 44/64/39 35/47/39 36/51/39
f 42/65/40 33/53/40 34/52/40
f 46/66/41 53/67/41 45/68/41
f 52/69/42 43/70/42 44/71/42
f 50/72/43 41/73/43 42/74/43
f 49/75/44 48/76/44 41/73/44
f 55/77/45 46/78/45 47/79/45
f 45/68/46 52/69/46 44/71/46
f 51/80/47 42/81/47 43/70/47
f 56/82/48 47/79/48 48/76/48
f 56/82/49 63/83/49 55/77/49
f 54/84/50 61/85/50 53/67/50
f 52/69/51 59/86/51 51/80/51
f 58/87/52 49/75/52 50/72/52
f 57/88/53 56/82/53 49/75/53
f 63/83/54 54/89/54 55/77/54
f 61/85/55 52/69/55 53/67/55
f 59/86/56 50/90/56 51/80/56
f 71/91/57 62/92/57 63/93/57
f 69/94/58 60/95/58 61/96/58
f 67/97/59 58/98/59 59/99/59
f 72/100/60 63/93/60 64/101/60
f 70/102/61 61/96/61 62/103/61
f 68/104/62 59/99/62 60/95/62
f 66/105/63 57/106/63 58/107/63
f 65/108/64 64/101/64 57/106/64
f 74/109/65 65/108/65 66/105/65
f 73/110/66 72/100/66 65/108/66
f 71/91/67 78/111/67 70/112/67
f 77/113/68 68/104/68 69/94/68
f 75/114/69 66/115/69 67/97/69
f 80/116/70 71/91/70 72/100/70
f 78/117/71 69/94/71 70/102/71
f 76/118/72 67/97/72 68/104/72
f 88/119/73 79/120/73 80/116/73
f 86/121/74 77/113/74 78/117/74
f 84/122/75 75/114/75 76/118/75
f 82/123/76 73/110/76 74/109/76
f 73/110/77 88/119/77 80/116/77
f 79/120/78 86/124/78 78/111/78
f 77/113/79 84/122/79 76/118/79
f 75/114/80 82/125/80 74/126/80
f 83/127/81 90/128/81 82/129/81
f 96/130/82 87/131/82 88/132/82
f 94/133/83 85/134/83 86/135/83
f 92/136/84 83/127/84 84/137/84
f 90/128/85 81/138/85 82/129/85
f 81/138/86 96/130/86 88/132/86
f 87/131/87 94/133/87 86/135/87
f 85/134/88 92/136/88 84/137/88
f 91/139/89 93/140/89 95/141/89
f 7/142/90 5/143/90 3/144/90
f 16/1/1 15/14/1 7/2/1
f 6/4/2 14/27/2 13/5/2
f 12/7/3 11/16/3 3/8/3
f 10/10/4 9/13/4 1/11/4
f 9/13/5 16/1/5 8/3/5
f 15/14/6 14/22/6 6/15/6
f 13/5/7 12/7/7 4/9/7
f 11/16/8 10/24/8 2/17/8
f 20/18/9 19/23/9 11/16/9
f 18/19/10 17/20/10 9/13/10
f 17/20/11 24/25/11 16/1/11
f 23/21/12 22/145/12 14/22/12
f 13/5/13 21/146/13 20/18/13
f 19/23/14 18/147/14 10/24/14
f 24/25/15 23/21/15 15/14/15
f 22/26/16 21/146/16 13/5/16
f 32/28/17 31/41/17 23/29/17
f 30/31/18 29/43/18 21/32/18
f 28/34/19 27/44/19 19/35/19
f 26/37/20 25/40/20 17/38/20
f 25/40/21 32/28/21 24/30/21
f 31/41/22 30/55/22 22/42/22
f 29/43/23 28/34/23 20/36/23
f 27/44/24 26/48/24 18/45/24
f 37/46/25 36/51/25 28/34/25
f 35/47/26 34/61/26 26/48/26
f 40/49/27 39/54/27 31/41/27
f 38/50/28 37/46/28 29/43/28
f 36/51/29 35/47/29 27/44/29
f 34/52/30 33/53/30 25/40/30
f 33/53/31 40/49/31 32/28/31
f 39/54/32 38/58/32 30/55/32
f 41/56/33 48/62/33 40/49/33
f 47/57/34 46/148/34 38/58/34
f 45/59/35 44/64/35 36/51/35
f 43/60/36 42/149/36 34/61/36
f 48/62/37 47/57/37 39/54/37
f 46/63/38 45/59/38 37/46/38
f 44/64/39 43/60/39 35/47/39
f 42/65/40 41/56/40 33/53/40
f 46/66/41 54/84/41 53/67/41
f 52/69/42 51/80/42 43/70/42
f 50/72/43 49/75/43 41/73/43
f 49/75/44 56/82/44 48/76/44
f 55/77/45 54/89/45 46/78/45
f 45/68/46 53/67/46 52/69/46
f 51/80/47 50/90/47 42/81/47
f 56/82/48 55/77/48 47/79/48
f 56/82/49 64/150/49 63/83/49
f 54/84/50 62/151/50 61/85/50
f 52/69/51 60/152/51 59/86/51
f 58/87/52 57/88/52 49/75/52
f 57/88/53 64/150/53 56/82/53
f 63/83/54 62/153/54 54/89/54
f 61/85/55 60/152/55 52/69/55
f 59/86/56 58/154/56 50/90/56
f 71/91/57 70/112/57 62/92/57
f 69/94/58 68/104/58 60/95/58
f 67/97/59 66/115/59 58/98/59
f 72/100/60 71/91/60 63/93/60
f 70/102/61 69/94/61 61/96/61
f 68/104/62 67/97/62 59/99/62
f 66/105/63 65/108/63 57/106/63
f 65/108/64 72/100/64 64/101/64
f 74/109/65 73/110/65 65/108/65
f 73/110/66 80/116/66 72/100/66
f 71/91/67 79/120/67 78/111/67
f 77/113/68 76/118/68 68/104/68
f 75/114/69 74/126/69 66/115/69
f 80/116/70 79/120/70 71/91/70
f 78/117/71 77/113/71 69/94/71
f 76/118/72 75/114/72 67/97/72
f 88/119/73 87/155/73 79/120/73
f 86/121/74 85/156/74 77/113/74
f 84/122/75 83/157/75 75/114/75
f 82/123/76 81/158/76 73/110/76
f 73/110/77 81/158/77 88/119/77
f 79/120/78 87/155/78 86/124/78
f 77/113/79 85/156/79 84/122/79
f 75/114/80 83/157/80 82/125/80
f 83/127/81 91/159/81 90/128/81
f 96/130/82 95/160/82 87/131/82
f 94/133/83 93/161/83 85/134/83
f 92/136/84 91/159/84 83/127/84
f 90/128/85 89/162/85 81/138/85
f 81/138/86 89/162/86 96/130/86
f 87/131/87 95/160/87 94/133/87
f 85/134/88 93/161/88 92/136/88
f 89/163/89 90/164/89 91/139/89
f 91/139/89 92/165/89 93/140/89
f 93/140/89 94/166/89 95/141/89
f 95/141/89 96/167/89 89/163/89
f 89/163/89 91/139/89 95/141/89
f 3/144/90 2/168/90 7/142/90
f 2/168/90 1/169/90 7/142/90
f 1/169/90 8/170/90 7/142/90
f 7/142/90 6/171/90 5/143/90
f 5/143/90 4/172/90 3/144/90
